<svg width="37" height="37" viewBox="0 0 37 37" fill="none" xmlns="http://www.w3.org/2000/svg">
<g clip-path="url(#clip0)">
<rect width="37" height="37" fill="white"/>
<path d="M6.21561 15.2749C6.51493 15.2749 6.7576 15.0323 6.7576 14.7329V2.03283C6.7576 1.50963 7.18324 1.08398 7.70645 1.08398H25.4552C25.7546 1.08398 25.9972 0.841316 25.9972 0.541992C25.9972 0.242668 25.7546 0 25.4552 0H7.70645C6.58553 0 5.67361 0.91192 5.67361 2.03283V14.7329C5.67361 15.0323 5.91628 15.2749 6.21561 15.2749V15.2749Z" fill="#BE2E21"/>
<path d="M35.473 26.0658C35.2534 25.8868 34.9487 25.8548 34.6968 25.9846L32.6567 27.0344C32.4617 26.7413 32.169 26.2831 31.8176 25.6758C31.6677 25.4168 31.336 25.3282 31.077 25.4783C30.8179 25.6282 30.7294 25.9598 30.8794 26.2188C31.5597 27.3943 32.025 28.0292 32.0444 28.0557C32.2022 28.2701 32.4923 28.3382 32.7289 28.2163L34.4365 27.3376L33.0485 32.3118L28.1939 30.5499L29.9016 29.6713C30.0432 29.5983 30.1455 29.4667 30.1815 29.3115C30.2174 29.1564 30.1831 28.993 30.088 28.8653C30.0747 28.8474 28.7366 27.0334 27.3301 23.6694C26.0703 20.6563 24.5035 15.7642 24.0808 9.39316H25.6501C25.8466 13.4772 27.5646 20.0144 29.7753 24.1548C29.9081 24.423 30.2333 24.5329 30.5015 24.4001C30.7697 24.2674 30.8796 23.9423 30.7468 23.674C30.3456 22.8634 29.9186 21.9263 29.4967 20.8746C30.5231 20.7729 31.3274 19.9046 31.3274 18.8519V2.03283C31.3274 0.91192 30.4155 0 29.2946 0H27.7614C27.462 0 27.2194 0.242668 27.2194 0.541992C27.2194 0.841316 27.462 1.08398 27.7614 1.08398H29.2946C29.8178 1.08398 30.2435 1.50963 30.2435 2.03283V18.8519C30.2435 19.3751 29.8178 19.8008 29.2946 19.8008H29.0837C28.9413 19.4144 28.8008 19.0145 28.6632 18.6023C28.9585 18.4418 29.1594 18.1286 29.1594 17.7694V3.11537C29.1594 2.59296 28.7344 2.16797 28.212 2.16797H8.78823C8.26583 2.16797 7.84083 2.59296 7.84083 3.11537V17.7694C7.84083 18.1278 8.04093 18.4402 8.3352 18.6012C8.19681 19.0168 8.05633 19.4172 7.91527 19.8008H7.70569C7.18249 19.8008 6.75685 19.3751 6.75685 18.8519V17.0603C6.75685 16.7609 6.51418 16.5183 6.21486 16.5183C5.91553 16.5183 5.67286 16.7609 5.67286 17.0603V18.8519C5.67286 19.9044 6.47689 20.7725 7.50299 20.8746C7.29443 21.3958 7.08811 21.88 6.88967 22.3234C5.82534 24.7004 4.80647 26.3368 4.34332 27.0342L2.30355 25.9846C2.05171 25.8551 1.74696 25.8868 1.52727 26.0659C1.30759 26.2449 1.21494 26.5369 1.29104 26.8097L3.01544 32.9893C3.06855 33.1797 3.19986 33.3408 3.37568 33.4313C3.47736 33.4836 3.58959 33.5101 3.70211 33.5101C3.7842 33.5101 3.86644 33.4961 3.94485 33.4676L9.97577 31.2788H9.97585C10.2422 31.1821 10.4258 30.9369 10.4438 30.6541C10.4618 30.3714 10.3107 30.105 10.0587 29.9753L8.14117 28.9886C8.64905 28.2101 9.62637 26.5763 10.6527 24.1296C11.0369 23.2135 11.4488 22.1278 11.8497 20.8848H16.3683V30.9267H14.006C13.7458 30.9267 13.5104 31.0808 13.4063 31.3193C13.3022 31.5577 13.3492 31.8351 13.526 32.0258L17.8878 36.7325C18.0453 36.9025 18.2685 36.9999 18.5002 36.9999C18.7319 36.9999 18.9551 36.9024 19.1125 36.7325L23.4743 32.0259C23.6512 31.835 23.6982 31.5577 23.5942 31.3193C23.49 31.0808 23.2547 30.9267 22.9945 30.9267H20.632V20.8848H25.1505C25.5513 22.1278 25.9632 23.2135 26.3475 24.1296C27.3738 26.5763 28.3512 28.2101 28.859 28.9886L26.9414 29.9753C26.6895 30.1049 26.5383 30.3714 26.5563 30.6541C26.5743 30.9369 26.7579 31.182 27.0244 31.2788L33.0553 33.4676C33.1337 33.4961 33.216 33.5101 33.2981 33.5101C33.4106 33.5101 33.5228 33.4836 33.6245 33.4313C33.8003 33.3408 33.9316 33.1797 33.9847 32.9893L35.7091 26.8097C35.7854 26.5368 35.6927 26.2448 35.473 26.0658V26.0658ZM23.7234 15.23H20.632V11.978H23.2297C23.3635 13.1173 23.5314 14.2017 23.7234 15.23ZM20.632 16.314H23.9386C24.034 16.766 24.1338 17.2052 24.237 17.6328H20.632V16.314ZM23.1151 10.894H20.632V9.39323H22.9951C23.0282 9.90278 23.0684 10.403 23.1151 10.894ZM8.92482 8.30925V5.05729H28.0755V8.30925H8.92482ZM13.7706 11.978H16.3683V15.23H13.2769C13.469 14.2017 13.6368 13.1173 13.7706 11.978ZM13.0617 16.314H16.3683V17.6328H12.7633C12.8665 17.2052 12.9663 16.766 13.0617 16.314ZM16.3683 10.894H13.8852C13.932 10.403 13.9722 9.90278 14.0052 9.39323H16.3683V10.894ZM9.30096 15.23H8.92482V11.978H9.94607C9.76837 13.1183 9.54818 14.2042 9.30096 15.23ZM10.0995 10.894H8.92482V9.39323H10.2618C10.2167 9.9022 10.1622 10.4026 10.0995 10.894ZM27.0537 11.978H28.0755V15.23H27.6964C27.4482 14.1991 27.2298 13.1136 27.0537 11.978ZM28.0755 9.39323V10.894H26.9009C26.8384 10.402 26.7833 9.9022 26.7384 9.39323H28.0755ZM27.9731 16.314H28.0755V16.6864C28.041 16.5631 28.0068 16.439 27.9731 16.314ZM28.0755 3.25195V3.97331H8.92482V3.25195H28.0755ZM8.92482 16.314H9.02396C8.99116 16.4354 8.9582 16.5562 8.92482 16.6757V16.314ZM9.67031 23.6695C8.2638 27.0335 6.92573 28.8474 6.91265 28.865C6.81726 28.9928 6.78286 29.156 6.81878 29.3114C6.85462 29.4667 6.9571 29.5984 7.09888 29.6713L8.80652 30.55L3.95193 32.3118L2.56392 27.3376L4.27156 28.2163C4.50816 28.3381 4.79823 28.2701 4.95606 28.0557C7.99302 23.8596 10.809 16.4948 11.3502 9.39316H12.9196C12.4969 15.7643 10.93 20.6564 9.67031 23.6695V23.6695ZM12.1839 19.8008C12.287 19.4501 12.3886 19.0888 12.488 18.7168H16.3683V19.8008H12.1839ZM22.0105 32.0107L18.5002 35.7986L14.9899 32.0107H16.9103C17.2096 32.0107 17.4523 31.768 17.4523 31.4687V9.39323H19.548V31.4688C19.548 31.7681 19.7907 32.0108 20.09 32.0108L22.0105 32.0107ZM20.632 19.8008V18.7168H24.5122C24.6117 19.0888 24.7132 19.4501 24.8164 19.8008H20.632Z" fill="#BE2E21"/>
</g>
<defs>
<clipPath id="clip0">
<rect width="37" height="37" fill="white"/>
</clipPath>
</defs>
</svg>
