<svg width="92" height="93" viewBox="0 0 92 93" fill="none" xmlns="http://www.w3.org/2000/svg">
<g clip-path="url(#clip0)">
<path d="M9.05107 64.1552L11.5007 61.7056C12.6554 60.5509 14.5273 60.5509 15.682 61.7056C16.8373 62.8602 16.8373 64.7322 15.682 65.8875L13.2323 68.3372C12.0777 69.4918 10.2057 69.4918 9.05107 68.3372C7.89574 67.1818 7.89574 65.3099 9.05107 64.1552Z" fill="#91EDF8"/>
<path d="M0.687264 72.5184L3.13691 70.0694C4.29154 68.9141 6.16353 68.9141 7.31886 70.0694C8.47349 71.224 8.47349 73.096 7.31886 74.2507L4.86921 76.7003C3.71458 77.8557 1.8419 77.8557 0.687264 76.7003C-0.467369 75.5457 -0.467369 73.6737 0.687264 72.5184Z" fill="#91EDF8"/>
<path d="M4.00226 71.2935C4.00226 72.4488 3.06592 73.3845 1.91129 73.3845C0.756654 73.3845 -0.179688 72.4488 -0.179688 71.2935C-0.179688 70.1389 0.756654 69.2032 1.91129 69.2032C3.06592 69.2032 4.00226 70.1389 4.00226 71.2935Z" fill="#BCF4F5"/>
<path d="M8.18378 71.2935C8.18378 72.4488 7.24744 73.3845 6.0928 73.3845C4.93817 73.3845 4.00183 72.4488 4.00183 71.2935C4.00183 70.1389 4.93817 69.2032 6.0928 69.2032C7.24744 69.2032 8.18378 70.1389 8.18378 71.2935Z" fill="#48E1F4"/>
<path d="M21.5957 64.1552L24.0454 61.7056C25.2 60.5509 27.0727 60.5509 28.2273 61.7056C29.3819 62.8602 29.3819 64.7322 28.2273 65.8875L25.7777 68.3372C24.623 69.4918 22.7503 69.4918 21.5957 68.3372C20.4411 67.1818 20.4411 65.3099 21.5957 64.1552Z" fill="#91EDF8"/>
<path d="M13.2311 72.5184L15.6807 70.0694C16.8354 68.9141 18.7081 68.9141 19.8627 70.0694C21.0173 71.224 21.0173 73.096 19.8627 74.2507L17.413 76.7003C16.2584 77.8557 14.3864 77.8557 13.2311 76.7003C12.0765 75.5457 12.0765 73.6737 13.2311 72.5184Z" fill="#91EDF8"/>
<path d="M34.1412 64.1552L36.5901 61.7056C37.7454 60.5509 39.6174 60.5509 40.772 61.7056C41.9274 62.8602 41.9274 64.7322 40.772 65.8875L38.3224 68.3372C37.1678 69.4918 35.2958 69.4918 34.1412 68.3372C32.9858 67.1818 32.9858 65.3099 34.1412 64.1552Z" fill="#91EDF8"/>
<path d="M25.7772 72.5184L28.2269 70.0694C29.3815 68.9141 31.2535 68.9141 32.4088 70.0694C33.5634 71.224 33.5634 73.096 32.4088 74.2507L29.9592 76.7003C28.8038 77.8557 26.9319 77.8557 25.7772 76.7003C24.6226 75.5457 24.6226 73.6737 25.7772 72.5184Z" fill="#91EDF8"/>
<path d="M46.6858 64.1552L49.1354 61.7056C50.2901 60.5509 52.1621 60.5509 53.3174 61.7056C54.472 62.8602 54.472 64.7322 53.3174 65.8875L50.8678 68.3372C49.7131 69.4918 47.8404 69.4918 46.6858 68.3372C45.5312 67.1818 45.5312 65.3099 46.6858 64.1552Z" fill="#91EDF8"/>
<path d="M38.3228 72.5184L40.7724 70.0694C41.927 68.9141 43.7997 68.9141 44.9544 70.0694C46.109 71.224 46.109 73.096 44.9544 74.2507L42.5047 76.7003C41.3501 77.8557 39.4781 77.8557 38.3228 76.7003C37.1681 75.5457 37.1681 73.6737 38.3228 72.5184Z" fill="#91EDF8"/>
<path d="M16.5478 71.2935C16.5478 72.4488 15.6122 73.3845 14.4568 73.3845C13.3022 73.3845 12.3658 72.4488 12.3658 71.2935C12.3658 70.1389 13.3022 69.2032 14.4568 69.2032C15.6122 69.2032 16.5478 70.1389 16.5478 71.2935Z" fill="#BCF4F5"/>
<path d="M20.7293 71.2935C20.7293 72.4488 19.793 73.3845 18.6383 73.3845C17.4837 73.3845 16.5474 72.4488 16.5474 71.2935C16.5474 70.1389 17.4837 69.2032 18.6383 69.2032C19.793 69.2032 20.7293 70.1389 20.7293 71.2935Z" fill="#48E1F4"/>
<path d="M29.0939 71.2935C29.0939 72.4488 28.1576 73.3845 27.003 73.3845C25.8483 73.3845 24.912 72.4488 24.912 71.2935C24.912 70.1389 25.8483 69.2032 27.003 69.2032C28.1576 69.2032 29.0939 70.1389 29.0939 71.2935Z" fill="#BCF4F5"/>
<path d="M33.2754 71.2935C33.2754 72.4488 32.3391 73.3845 31.1845 73.3845C30.0298 73.3845 29.0935 72.4488 29.0935 71.2935C29.0935 70.1389 30.0298 69.2032 31.1845 69.2032C32.3391 69.2032 33.2754 70.1389 33.2754 71.2935Z" fill="#48E1F4"/>
<path d="M41.6378 71.2935C41.6378 72.4488 40.7014 73.3845 39.5468 73.3845C38.3922 73.3845 37.4558 72.4488 37.4558 71.2935C37.4558 70.1389 38.3922 69.2032 39.5468 69.2032C40.7014 69.2032 41.6378 70.1389 41.6378 71.2935Z" fill="#BCF4F5"/>
<path d="M45.8209 71.2935C45.8209 72.4488 44.8845 73.3845 43.7299 73.3845C42.5753 73.3845 41.6389 72.4488 41.6389 71.2935C41.6389 70.1389 42.5753 69.2032 43.7299 69.2032C44.8845 69.2032 45.8209 70.1389 45.8209 71.2935Z" fill="#48E1F4"/>
<path d="M12.3662 62.9304C12.3662 64.085 11.4305 65.0214 10.2759 65.0214C9.12058 65.0214 8.18494 64.085 8.18494 62.9304C8.18494 61.7758 9.12058 60.8394 10.2759 60.8394C11.4305 60.8394 12.3662 61.7758 12.3662 62.9304Z" fill="#BCF4F5"/>
<path d="M16.5478 62.9304C16.5478 64.085 15.6122 65.0214 14.4568 65.0214C13.3022 65.0214 12.3658 64.085 12.3658 62.9304C12.3658 61.7758 13.3022 60.8394 14.4568 60.8394C15.6122 60.8394 16.5478 61.7758 16.5478 62.9304Z" fill="#48E1F4"/>
<path d="M24.9108 62.9304C24.9108 64.085 23.9745 65.0214 22.8199 65.0214C21.6652 65.0214 20.7289 64.085 20.7289 62.9304C20.7289 61.7758 21.6652 60.8394 22.8199 60.8394C23.9745 60.8394 24.9108 61.7758 24.9108 62.9304Z" fill="#BCF4F5"/>
<path d="M29.0939 62.9304C29.0939 64.085 28.1576 65.0214 27.003 65.0214C25.8483 65.0214 24.912 64.085 24.912 62.9304C24.912 61.7758 25.8483 60.8394 27.003 60.8394C28.1576 60.8394 29.0939 61.7758 29.0939 62.9304Z" fill="#48E1F4"/>
<path d="M37.4563 62.9304C37.4563 64.085 36.5206 65.0214 35.3653 65.0214C34.2107 65.0214 33.275 64.085 33.275 62.9304C33.275 61.7758 34.2107 60.8394 35.3653 60.8394C36.5206 60.8394 37.4563 61.7758 37.4563 62.9304Z" fill="#BCF4F5"/>
<path d="M41.6378 62.9304C41.6378 64.085 40.7014 65.0214 39.5468 65.0214C38.3922 65.0214 37.4558 64.085 37.4558 62.9304C37.4558 61.7758 38.3922 60.8394 39.5468 60.8394C40.7014 60.8394 41.6378 61.7758 41.6378 62.9304Z" fill="#48E1F4"/>
<path d="M50.0025 62.9304C50.0025 64.085 49.0662 65.0214 47.9115 65.0214C46.7569 65.0214 45.8206 64.085 45.8206 62.9304C45.8206 61.7758 46.7569 60.8394 47.9115 60.8394C49.0662 60.8394 50.0025 61.7758 50.0025 62.9304Z" fill="#BCF4F5"/>
<path d="M54.184 62.9304C54.184 64.085 53.2477 65.0214 52.093 65.0214C50.9384 65.0214 50.0021 64.085 50.0021 62.9304C50.0021 61.7758 50.9384 60.8394 52.093 60.8394C53.2477 60.8394 54.184 61.7758 54.184 62.9304Z" fill="#48E1F4"/>
<path d="M83.4565 56.6574H11.2852C8.81943 56.6574 6.43226 55.62 4.89228 53.6947C2.55142 50.7685 -0.179688 45.3069 -0.179688 35.7484C-0.179688 26.1899 2.55142 20.7283 4.89228 17.8021C6.43226 15.8768 8.81943 14.8394 11.2852 14.8394H83.4565C88.0757 14.8394 91.8204 18.584 91.8204 23.2033V48.2935C91.8204 52.9128 88.0757 56.6574 83.4565 56.6574Z" fill="#CACAD4"/>
<path d="M8.18378 35.7484H58.3651C60.675 35.7484 62.547 37.6203 62.547 39.9303C62.547 42.2396 60.675 44.1123 58.3651 44.1123H8.18378C5.87381 44.1123 4.00183 42.2396 4.00183 39.9303C4.00183 37.621 5.87381 35.7484 8.18378 35.7484Z" fill="#999AAC"/>
<path d="M12.3662 44.1123H62.5482C64.8581 44.1123 66.7301 45.9843 66.7301 48.2936C66.7301 50.6035 64.8581 52.4755 62.5482 52.4755H12.3662C10.0569 52.4755 8.18494 50.6035 8.18494 48.2936C8.18494 45.9843 10.0569 44.1123 12.3662 44.1123Z" fill="#4C4F6E"/>
<path d="M12.3662 44.1123H20.7301C23.0393 44.1123 24.912 45.9843 24.912 48.2936C24.912 50.6035 23.04 52.4755 20.7301 52.4755H12.3662C10.0569 52.4755 8.18494 50.6035 8.18494 48.2936C8.18494 45.9843 10.0569 44.1123 12.3662 44.1123Z" fill="#2C2F53"/>
<path d="M83.4561 56.6574H78.1939C75.7281 56.6574 73.3409 55.62 71.801 53.6947C69.4601 50.7685 66.729 45.3069 66.729 35.7484C66.729 26.1899 69.4601 20.7283 71.801 17.8021C73.3409 15.8768 75.7281 14.8394 78.1939 14.8394H83.4561C88.0753 14.8394 91.82 18.584 91.82 23.2033V48.2935C91.82 52.9128 88.0753 56.6574 83.4561 56.6574Z" fill="#999AAC"/>
<path d="M4.00226 39.9303H62.5474C64.8574 39.9303 66.7294 41.8023 66.7294 44.1122C66.7294 46.4215 64.8574 48.2942 62.5474 48.2942H4.00226C1.69229 48.2935 -0.179688 46.4215 -0.179688 44.1122C-0.179688 41.8023 1.69229 39.9303 4.00226 39.9303Z" fill="#EAEAEE"/>
<path d="M10.2759 19.0212H62.5482C63.7035 19.0212 64.6391 19.9576 64.6391 21.1122C64.6391 22.2668 63.7035 23.2032 62.5482 23.2032H10.2759C9.12058 23.2032 8.18494 22.2668 8.18494 21.1122C8.18494 19.9576 9.12058 19.0212 10.2759 19.0212Z" fill="#4C4F6E"/>
<path d="M6.09281 27.3845H56.2748C57.4294 27.3845 58.3651 28.3209 58.3651 29.4755C58.3651 30.6301 57.4294 31.5665 56.2748 31.5665H6.09281C4.93817 31.5665 4.00183 30.6301 4.00183 29.4755C4.00183 28.3209 4.93817 27.3845 6.09281 27.3845Z" fill="#4C4F6E"/>
<path d="M6.09281 27.3845H22.8199C23.9745 27.3845 24.9109 28.3209 24.9109 29.4755C24.9109 30.6301 23.9745 31.5665 22.8199 31.5665H6.09281C4.93817 31.5665 4.00183 30.6301 4.00183 29.4755C4.00183 28.3209 4.93817 27.3845 6.09281 27.3845Z" fill="#2C2F53"/>
<path d="M10.2759 19.0212H22.8211C23.9757 19.0212 24.912 19.9576 24.912 21.1122C24.912 22.2668 23.9757 23.2032 22.8211 23.2032H10.2759C9.12058 23.2032 8.18494 22.2668 8.18494 21.1122C8.18494 19.9576 9.12058 19.0212 10.2759 19.0212Z" fill="#2C2F53"/>
<path d="M85.547 14.8394C86.7017 14.8394 87.638 15.7757 87.638 16.9303V54.5665C87.638 55.7211 86.7017 56.6574 85.547 56.6574C84.3924 56.6574 83.4561 55.7211 83.4561 54.5665V16.9303C83.4561 15.7757 84.3924 14.8394 85.547 14.8394Z" fill="#CACAD4"/>
<path d="M81.3654 14.8394C82.5208 14.8394 83.4564 15.7757 83.4564 16.9303V54.5665C83.4564 55.7211 82.5208 56.6574 81.3654 56.6574C80.2108 56.6574 79.2751 55.7211 79.2751 54.5665V16.9303C79.2751 15.7757 80.2108 14.8394 81.3654 14.8394Z" fill="#7C7F95"/>
</g>
<defs>
<clipPath id="clip0">
<rect width="92" height="92" fill="white" transform="translate(0 0.10498)"/>
</clipPath>
</defs>
</svg>
