<svg width="21" height="21" viewBox="0 0 21 21" fill="none" xmlns="http://www.w3.org/2000/svg">
<g clip-path="url(#clip0)">
<path d="M18.1364 6.68194H15.2727V2.86377H1.90911C0.854304 2.86377 0 3.71807 0 4.77288V15.2729H1.90911C1.90911 16.8527 3.19296 18.1365 4.77275 18.1365C6.35253 18.1365 7.63638 16.8527 7.63638 15.2729H13.3637C13.3637 16.8527 14.6475 18.1365 16.2273 18.1365C17.8071 18.1365 19.0909 16.8527 19.0909 15.2729H21V10.5002L18.1364 6.68194ZM4.77275 16.7047C3.98046 16.7047 3.34093 16.0651 3.34093 15.2729C3.34093 14.4806 3.98046 13.841 4.77275 13.841C5.56503 13.841 6.20457 14.4806 6.20457 15.2729C6.20457 16.0651 5.56499 16.7047 4.77275 16.7047ZM16.2273 16.7047C15.435 16.7047 14.7955 16.0651 14.7955 15.2729C14.7955 14.4806 15.435 13.841 16.2273 13.841C17.0196 13.841 17.6591 14.4806 17.6591 15.2729C17.6591 16.0651 17.0195 16.7047 16.2273 16.7047ZM15.2727 10.5002V8.1138H17.6591L19.5348 10.5002H15.2727Z" fill="#BE2E21"/>
</g>
<defs>
<clipPath id="clip0">
<rect width="21" height="21" fill="white"/>
</clipPath>
</defs>
</svg>
