<svg width="22" height="22" viewBox="0 0 22 22" fill="none" xmlns="http://www.w3.org/2000/svg">
<path d="M11.0027 0H10.9973C4.93213 0 0 4.9335 0 11C0 13.4062 0.7755 15.6365 2.09413 17.4474L0.72325 21.5339L4.95138 20.1823C6.69075 21.3345 8.76562 22 11.0027 22C17.0679 22 22 17.0651 22 11C22 4.93488 17.0679 0 11.0027 0Z" fill="#4CAF50"/>
<path d="M17.4032 15.5335C17.1378 16.2829 16.0846 16.9044 15.2445 17.0859C14.6697 17.2083 13.919 17.3059 11.3917 16.2581C8.15908 14.9189 6.07733 11.634 5.91508 11.4209C5.7597 11.2077 4.60883 9.6815 4.60883 8.103C4.60883 6.5245 5.41045 5.75588 5.73358 5.42588C5.99895 5.155 6.43758 5.03125 6.85833 5.03125C6.99445 5.03125 7.11683 5.03813 7.22683 5.04363C7.54995 5.05738 7.7122 5.07663 7.92533 5.58675C8.1907 6.22613 8.83695 7.80463 8.91395 7.96688C8.99233 8.12913 9.0707 8.34913 8.9607 8.56225C8.85758 8.78225 8.76683 8.87987 8.60458 9.06687C8.44233 9.25387 8.28833 9.39688 8.12608 9.59763C7.97758 9.77225 7.80983 9.95925 7.99683 10.2824C8.18383 10.5986 8.83008 11.6532 9.78158 12.5002C11.0095 13.5934 12.005 13.9426 12.3611 14.0911C12.6265 14.2011 12.9427 14.175 13.1366 13.9688C13.3827 13.7034 13.6866 13.2634 13.996 12.8303C14.216 12.5195 14.4937 12.481 14.7852 12.591C15.0822 12.6941 16.6538 13.471 16.977 13.6319C17.3001 13.7941 17.5132 13.8711 17.5916 14.0073C17.6686 14.1434 17.6686 14.7828 17.4032 15.5335Z" fill="#FAFAFA"/>
</svg>
